<svg width="23" height="19" viewBox="0 0 23 19" fill="none" xmlns="http://www.w3.org/2000/svg">
<path d="M8.30556 0C7.11163 0 6.12135 0.760742 5.83785 1.78867C5.8059 1.78867 5.78194 1.78125 5.75 1.78125C4.34045 1.78125 3.19444 2.84629 3.19444 4.15625C3.19444 4.33437 3.2184 4.50879 3.26233 4.67578C2.09635 5.12109 1.27778 6.18242 1.27778 7.42188C1.27778 7.88945 1.40556 8.32363 1.6092 8.71699C0.650868 9.2291 0 10.1791 0 11.2812C0 12.517 0.814583 13.5783 1.97257 14.0236C1.93663 14.1943 1.91667 14.3687 1.91667 14.5469C1.91667 16.0238 3.20243 17.2188 4.79167 17.2188C4.95538 17.2188 5.1151 17.2002 5.27083 17.1742C5.65417 18.2318 6.71632 19 7.98611 19C9.57535 19 10.8611 17.8051 10.8611 16.3281V2.375C10.8611 1.06504 9.7151 0 8.30556 0ZM23 11.2812C23 10.1791 22.3491 9.2291 21.3908 8.71699C21.5984 8.32363 21.7222 7.88945 21.7222 7.42188C21.7222 6.18242 20.9036 5.12109 19.7377 4.67578C19.7776 4.50879 19.8056 4.33437 19.8056 4.15625C19.8056 2.84629 18.6595 1.78125 17.25 1.78125C17.2181 1.78125 17.1901 1.78867 17.1622 1.78867C16.8786 0.760742 15.8884 0 14.6944 0C13.2849 0 12.1389 1.06133 12.1389 2.375V16.3281C12.1389 17.8051 13.4247 19 15.0139 19C16.2837 19 17.3458 18.2318 17.7292 17.1742C17.8849 17.2002 18.0446 17.2188 18.2083 17.2188C19.7976 17.2188 21.0833 16.0238 21.0833 14.5469C21.0833 14.3687 21.0634 14.1943 21.0274 14.0236C22.1854 13.5783 23 12.517 23 11.2812Z" fill="#F3B5B8"/>
</svg>
