<svg width="20" height="20" viewBox="0 0 20 20" fill="none" xmlns="http://www.w3.org/2000/svg">
<path d="M9.16046 1.29732C9.55452 0.68838 10.4455 0.68838 10.8395 1.29732L11.7217 2.66053C11.9789 3.05794 12.4795 3.22058 12.9211 3.05024L14.4361 2.46591C15.1128 2.2049 15.8336 2.72859 15.7945 3.45285L15.7069 5.07425C15.6814 5.54692 15.9908 5.97274 16.4482 6.09452L18.0173 6.51227C18.7182 6.69888 18.9935 7.54622 18.5362 8.10917L17.5123 9.36944C17.2138 9.73683 17.2138 10.2632 17.5123 10.6306L18.5362 11.8908C18.9935 12.4538 18.7182 13.3011 18.0173 13.4877L16.4482 13.9055C15.9908 14.0273 15.6814 14.4531 15.7069 14.9257L15.7945 16.5471C15.8336 17.2714 15.1128 17.7951 14.4361 17.5341L12.9211 16.9498C12.4795 16.7794 11.9789 16.9421 11.7217 17.3395L10.8395 18.7027C10.4455 19.3116 9.55452 19.3116 9.16046 18.7027L8.27828 17.3395C8.0211 16.9421 7.52052 16.7794 7.07887 16.9498L5.56389 17.5341C4.88716 17.7951 4.16637 17.2714 4.20549 16.5471L4.29306 14.9257C4.31859 14.4531 4.00922 14.0273 3.55179 13.9055L1.98269 13.4877C1.28178 13.3011 1.00646 12.4538 1.46383 11.8908L2.48771 10.6306C2.78619 10.2632 2.78619 9.73683 2.48771 9.36944L1.46382 8.10917C1.00646 7.54622 1.28178 6.69888 1.98269 6.51227L3.55179 6.09452C4.00922 5.97274 4.31859 5.54692 4.29306 5.07425L4.20549 3.45285C4.16637 2.72859 4.88716 2.2049 5.56389 2.46591L7.07887 3.05024C7.52052 3.22058 8.0211 3.05794 8.27828 2.66053L9.16046 1.29732Z" fill="#0ECC8D"/>
<path d="M7.75 12H7.204L5.008 8.67V12H4.462V7.812H5.008L7.204 11.136V7.812H7.75V12ZM11.6808 10.23C11.6808 10.334 11.6748 10.444 11.6628 10.56H9.03475C9.05475 10.884 9.16475 11.138 9.36475 11.322C9.56875 11.502 9.81475 11.592 10.1028 11.592C10.3388 11.592 10.5348 11.538 10.6908 11.43C10.8508 11.318 10.9628 11.17 11.0268 10.986H11.6148C11.5268 11.302 11.3508 11.56 11.0868 11.76C10.8228 11.956 10.4948 12.054 10.1028 12.054C9.79075 12.054 9.51075 11.984 9.26275 11.844C9.01875 11.704 8.82675 11.506 8.68675 11.25C8.54675 10.99 8.47675 10.69 8.47675 10.35C8.47675 10.01 8.54475 9.712 8.68075 9.456C8.81675 9.2 9.00675 9.004 9.25075 8.868C9.49875 8.728 9.78275 8.658 10.1028 8.658C10.4148 8.658 10.6908 8.726 10.9308 8.862C11.1708 8.998 11.3548 9.186 11.4828 9.426C11.6148 9.662 11.6808 9.93 11.6808 10.23ZM11.1168 10.116C11.1168 9.908 11.0708 9.73 10.9788 9.582C10.8868 9.43 10.7608 9.316 10.6008 9.24C10.4448 9.16 10.2708 9.12 10.0788 9.12C9.80275 9.12 9.56675 9.208 9.37075 9.384C9.17875 9.56 9.06875 9.804 9.04075 10.116H11.1168ZM16.7815 8.712L15.7555 12H15.1915L14.3995 9.39L13.6075 12H13.0435L12.0115 8.712H12.5695L13.3255 11.472L14.1415 8.712H14.6995L15.4975 11.478L16.2415 8.712H16.7815Z" fill="white"/>
</svg>
