<svg width="13" height="17" viewBox="0 0 13 17" fill="none" xmlns="http://www.w3.org/2000/svg">
<path d="M3.71429 16.15C3.71429 16.6175 4.13214 17 4.64286 17H8.35714C8.86786 17 9.28571 16.6175 9.28571 16.15V15.3H3.71429V16.15ZM6.5 0C2.91571 0 0 2.669 0 5.95C0 7.973 1.105 9.7495 2.78571 10.829V12.75C2.78571 13.2175 3.20357 13.6 3.71429 13.6H9.28571C9.79643 13.6 10.2143 13.2175 10.2143 12.75V10.829C11.895 9.7495 13 7.973 13 5.95C13 2.669 10.0843 0 6.5 0ZM8.35714 9.945V11.9H4.64286V9.945C3.23143 9.0355 1.85714 8.1005 1.85714 5.95C1.85714 3.604 3.93714 1.7 6.5 1.7C9.06286 1.7 11.1429 3.604 11.1429 5.95C11.1429 8.0665 9.74071 9.0525 8.35714 9.945Z" fill="#FFBF00"/>
</svg>
